<svg width="173" height="36" viewBox="0 0 173 36" fill="none" xmlns="http://www.w3.org/2000/svg">
<path d="M14.6468 4.77324C13.7926 6.26019 13.7845 8.10944 14.6226 9.60686L26.6102 31H38L21.6725 2.12397C21.0425 1.00771 20.1297 -0.079222 18.8857 0.00454948C18.0072 0.0631895 17.153 0.452727 16.745 1.14594C16.3734 1.77422 15.4505 3.37845 14.6468 4.77324Z" fill="url(#paint0_linear)"/>
<path opacity="0.7" d="M41 36L24.6732 7.12397C24.0431 6.00771 23.1302 4.92078 21.8861 5.00455C21.0075 5.06319 20.1532 5.45273 19.7453 6.14594C19.3757 6.77422 18.4507 8.37635 17.6468 9.77324C16.7925 11.2602 16.7845 13.1094 17.6226 14.6069L29.6112 36" fill="url(#paint1_linear)"/>
<path d="M23.3532 4.77292C24.2075 6.25976 24.2155 8.10889 23.3774 9.60621L11.3908 31H0L16.3288 2.12382C16.959 1.00765 17.8718 -0.0792167 19.1159 0.00454917C19.9945 0.0631853 20.8488 0.452696 21.2568 1.14586C21.6264 1.7741 22.5514 3.37822 23.3532 4.77292Z" fill="url(#paint2_linear)"/>
<path d="M60.7101 19.338C60.3234 19.8451 59.8664 20.2845 59.3391 20.6901C58.3899 21.3662 57.0892 22.0423 55.437 22.0423C52.2731 22.0423 49.4608 19.338 49.4608 15.7887C49.4608 12.2394 52.2731 9.53521 55.437 9.53521C57.0892 9.53521 58.3899 10.2113 59.2336 10.8873C59.7258 11.293 60.1476 11.7324 60.5343 12.2394L62.292 10.5493C61.7647 9.97465 61.1671 9.4338 60.4992 8.96056C59.3391 8.1493 57.6517 7.33803 55.437 7.33803C50.8318 7.33803 47 11.0563 47 15.7887C47 20.5211 50.8318 24.2394 55.437 24.2394C57.6517 24.2394 59.3742 23.3944 60.6046 22.5493C61.3077 22.0423 61.9405 21.5014 62.4678 20.8592L60.7101 19.338Z" fill="white"/>
<path d="M73.3615 24.2394C78.1073 24.2394 81.9742 20.5211 81.9742 15.7887C81.9742 11.0563 78.1073 7.33803 73.3615 7.33803C68.6157 7.33803 64.7487 11.0563 64.7487 15.7887C64.7487 20.5211 68.6157 24.2394 73.3615 24.2394ZM73.3615 22.0423C70.0218 22.0423 67.2095 19.3042 67.2095 15.7887C67.2095 12.2394 70.0218 9.53521 73.3615 9.53521C76.7011 9.53521 79.5134 12.2394 79.5134 15.7887C79.5134 19.338 76.7011 22.0423 73.3615 22.0423Z" fill="white"/>
<path d="M90.9413 23.9014H93.402L100.257 7.67606H97.6205L92.1716 20.6901L86.7228 7.67606H84.0862L90.9413 23.9014Z" fill="white"/>
<path d="M116.26 19.338C115.874 19.8451 115.382 20.2845 114.854 20.6901C113.905 21.3662 112.604 22.0423 110.812 22.0423C107.613 22.0423 105.011 19.507 104.835 16.6338L118.545 16.6676L118.616 16.3296C118.651 16.093 118.721 15.8225 118.721 15.4507C118.721 10.7183 115.241 7.33803 110.636 7.33803C106.242 7.33803 102.375 11.0563 102.375 15.7887C102.375 20.5211 106.206 24.2394 110.812 24.2394C113.097 24.2394 114.819 23.3944 116.05 22.5493C116.753 22.0423 117.35 21.5014 117.842 20.8592L116.26 19.338ZM104.835 14.6056C105.222 11.9014 107.613 9.53521 110.636 9.53521C113.624 9.53521 115.874 11.7324 116.26 14.6056H104.835Z" fill="white"/>
<path d="M123.105 23.9014H125.565V14.9437C125.565 11.7324 128.026 9.70422 130.838 9.70422H131.893V7.33803H131.19C129.221 7.33803 127.885 7.98028 126.936 8.62253C126.409 8.99437 125.952 9.4338 125.565 9.87324V7.67606H123.105V23.9014Z" fill="white"/>
<path d="M142.43 19.338C140.145 19.338 138.387 17.6817 138.387 15.2817C138.387 12.8817 140.145 11.2254 142.43 11.2254C144.715 11.2254 146.472 12.8817 146.472 15.2817C146.472 17.6817 144.715 19.338 142.43 19.338ZM134.344 27.6197C134.836 28.262 135.469 28.8028 136.207 29.3099C137.473 30.1549 139.336 31 141.902 31C147.351 31 151.218 27.2817 151.218 22.2113V7.33803H146.472V9.70422H146.297C145.945 9.19718 145.523 8.75775 145.031 8.35211C144.187 7.67606 142.852 7 141.023 7C137.192 7 133.641 10.3803 133.641 15.2817C133.641 20.1831 137.192 23.5634 141.023 23.5634C142.852 23.5634 144.187 22.8873 145.031 22.2113C145.523 21.8056 145.945 21.3662 146.297 20.8592H146.472V22.2113C146.472 24.9155 144.539 26.7746 141.902 26.7746C140.496 26.7746 139.371 26.2676 138.563 25.7606C138.106 25.4563 137.684 25.1183 137.332 24.7465L134.344 27.6197Z" fill="white"/>
<path d="M163.86 20.0141C161.399 20.0141 159.466 18.1549 159.466 15.6197C159.466 13.0845 161.399 11.2254 163.86 11.2254C166.321 11.2254 168.254 13.0845 168.254 15.6197C168.254 18.1549 166.321 20.0141 163.86 20.0141ZM154.72 15.6197C154.72 20.3521 158.763 24.2394 163.86 24.2394C168.957 24.2394 173 20.3521 173 15.6197C173 10.8873 168.957 7 163.86 7C158.763 7 154.72 10.8873 154.72 15.6197Z" fill="white"/>
<defs>
<linearGradient id="paint0_linear" x1="11.9769" y1="-4.54755" x2="34.1694" y2="31.2647" gradientUnits="userSpaceOnUse">
<stop stop-color="white"/>
<stop offset="0.0001" stop-color="white"/>
<stop offset="1" stop-color="#DADBDC"/>
</linearGradient>
<linearGradient id="paint1_linear" x1="16.7548" y1="9.35315" x2="27.1125" y2="20.5741" gradientUnits="userSpaceOnUse">
<stop offset="0.2418" stop-opacity="0.3"/>
<stop offset="0.3196" stop-color="#010103" stop-opacity="0.2491"/>
<stop offset="0.3881" stop-color="#03050E" stop-opacity="0.2044"/>
<stop offset="0.4531" stop-color="#070B20" stop-opacity="0.1619"/>
<stop offset="0.5159" stop-color="#0C143A" stop-opacity="0.1209"/>
<stop offset="0.5773" stop-color="#13205A" stop-opacity="0.0808"/>
<stop offset="0.6374" stop-color="#1B2E83" stop-opacity="0.0415"/>
<stop offset="0.6956" stop-color="#253EB1" stop-opacity="0.01"/>
<stop offset="0.7009" stop-color="#2640B6" stop-opacity="0"/>
</linearGradient>
<linearGradient id="paint2_linear" x1="26.0238" y1="-4.54724" x2="3.83448" y2="31.2656" gradientUnits="userSpaceOnUse">
<stop offset="0.177083" stop-color="white"/>
<stop offset="1" stop-color="#DADBDC"/>
<stop offset="1" stop-color="#DADBDC"/>
</linearGradient>
</defs>
</svg>
